<svg width="251" height="250" viewBox="0 0 251 250" fill="none" xmlns="http://www.w3.org/2000/svg">
<path fill-rule="evenodd" clip-rule="evenodd" d="M125.076 60.8109C89.6247 60.8109 60.8865 89.5491 60.8865 125C60.8865 160.451 89.6247 189.189 125.076 189.189C160.527 189.189 189.265 160.451 189.265 125C189.265 89.5491 160.527 60.8109 125.076 60.8109ZM125.076 166.667C102.064 166.667 83.409 148.012 83.409 125C83.409 101.988 102.064 83.3333 125.076 83.3333C148.088 83.3333 166.742 101.988 166.742 125C166.742 148.012 148.088 166.667 125.076 166.667Z" fill="#004593"/>
<path d="M191.801 73.2746C200.085 73.2746 206.801 66.5592 206.801 58.2748C206.801 49.9905 200.085 43.2746 191.801 43.2746C183.517 43.2746 176.801 49.9905 176.801 58.2748C176.801 66.5592 183.517 73.2746 191.801 73.2746Z" fill="#004593"/>
<path fill-rule="evenodd" clip-rule="evenodd" d="M125.076 0C91.1277 0 86.8709 0.143895 73.5383 0.752221C60.2336 1.35906 51.1469 3.47233 43.1959 6.56259C34.9761 9.75655 28.0051 14.0307 21.0555 20.9798C14.1064 27.9294 9.83223 34.9004 6.63827 43.1203C3.54801 51.0712 1.43474 60.1579 0.827905 73.4627C0.219578 86.7952 0.0756836 91.052 0.0756836 125C0.0756836 158.948 0.219578 163.205 0.827905 176.537C1.43474 189.842 3.54801 198.929 6.63827 206.88C9.83223 215.1 14.1064 222.071 21.0555 229.02C28.0051 235.969 34.9761 240.243 43.1959 243.438C51.1469 246.528 60.2336 248.641 73.5383 249.248C86.8709 249.856 91.1277 250 125.076 250C159.024 250 163.28 249.856 176.613 249.248C189.918 248.641 199.005 246.528 206.955 243.438C215.175 240.243 222.146 235.969 229.096 229.02C236.045 222.071 240.319 215.1 243.514 206.88C246.603 198.929 248.717 189.842 249.323 176.537C249.932 163.205 250.076 158.948 250.076 125C250.076 91.052 249.932 86.7952 249.323 73.4627C248.717 60.1579 246.603 51.0712 243.514 43.1203C240.319 34.9004 236.045 27.9294 229.096 20.9798C222.146 14.0307 215.175 9.75655 206.955 6.56259C199.005 3.47233 189.918 1.35906 176.613 0.752221C163.28 0.143895 159.024 0 125.076 0ZM125.076 22.5225C158.452 22.5225 162.406 22.65 175.586 23.2514C187.774 23.8071 194.392 25.8435 198.797 27.5553C204.632 29.8229 208.796 32.5316 213.17 36.906C217.544 41.2799 220.253 45.4439 222.52 51.2786C224.232 55.6832 226.269 62.3019 226.824 74.4893C227.426 87.67 227.553 91.6237 227.553 125C227.553 158.376 227.426 162.33 226.824 175.511C226.269 187.698 224.232 194.317 222.52 198.721C220.253 204.556 217.544 208.72 213.17 213.094C208.796 217.468 204.632 220.177 198.797 222.445C194.392 224.157 187.774 226.193 175.586 226.749C162.408 227.35 158.455 227.478 125.076 227.478C91.6969 227.478 87.7442 227.35 74.565 226.749C62.3776 226.193 55.7589 224.157 51.3543 222.445C45.5196 220.177 41.3556 217.468 36.9817 213.094C32.6078 208.72 29.8986 204.556 27.631 198.721C25.9192 194.317 23.8828 187.698 23.3271 175.511C22.7257 162.33 22.5982 158.376 22.5982 125C22.5982 91.6237 22.7257 87.67 23.3271 74.4893C23.8828 62.3019 25.9192 55.6832 27.631 51.2786C29.8986 45.4439 32.6073 41.2799 36.9817 36.906C41.3556 32.5316 45.5196 29.8229 51.3543 27.5553C55.7589 25.8435 62.3776 23.8071 74.565 23.2514C87.7457 22.65 91.6993 22.5225 125.076 22.5225Z" fill="#004593"/>
</svg>
