<svg width="251" height="250" viewBox="0 0 251 250" fill="none" xmlns="http://www.w3.org/2000/svg">
<path fill-rule="evenodd" clip-rule="evenodd" d="M232.699 0H19.6519C9.4614 0 0.806641 8.05952 0.806641 17.9881V232C0.806641 241.94 6.48521 250 16.6757 250H229.723C239.926 250 250.807 241.94 250.807 232V17.9881C250.807 8.05952 242.902 0 232.699 0ZM96.0447 95.2381H129.7V112.393H130.069C135.2 103.143 150.354 93.75 169.092 93.75C205.057 93.75 215.092 112.845 215.092 148.214V214.286H179.378V154.726C179.378 138.893 173.057 125 158.271 125C140.319 125 131.759 137.155 131.759 157.107V214.286H96.0447V95.2381ZM36.5209 214.286H72.2352V95.2381H36.5209V214.286ZM76.6995 53.5714C76.6995 65.9048 66.7114 75.8929 54.3781 75.8929C42.0447 75.8929 32.0566 65.9048 32.0566 53.5714C32.0566 41.2381 42.0447 31.25 54.3781 31.25C66.7114 31.25 76.6995 41.2381 76.6995 53.5714Z" fill="#004593"/>
</svg>
